<svg xmlns="http://www.w3.org/2000/svg" viewBox="0 0 128 128">
<path d="M109.2,18.8C96.7,6.2,81.7,0,64,0S31.2,6.2,18.8,18.8S0,46.3,0,64c0,17.7,6.2,32.7,18.8,45.2
	C31.2,121.7,46.3,128,64,128s32.7-6.3,45.2-18.8C121.7,96.7,128,81.7,128,64C128,46.3,121.7,31.2,109.2,18.8z M75.1,64.8
	c0,7.5-2.3,13.6-6.9,18.3c-4.6,4.7-10.7,7-18.2,7c-7.2,0-13.4-2.5-18.5-7.5C26.5,77.4,24,71.2,24,64s2.5-13.4,7.6-18.4
	c5.2-5.1,11.3-7.7,18.5-7.7c6.9-0.2,12.7,2.1,17.6,7l-7.1,6.8c-3-2.9-6.5-4.2-10.5-4.1c-4.5,0-8.4,1.6-11.6,4.7
	c-3.2,3.3-4.8,7.2-4.8,11.7s1.6,8.4,4.8,11.6c3.2,3.2,7.1,4.9,11.6,4.9c3.6,0.2,6.8-0.8,9.6-2.9c2.9-2.2,4.7-4.9,5.4-8.3H50v-9
	l24.7-0.1C75.2,61.7,75.3,63.3,75.1,64.8z M104,67.6h-7.5v7.5h-7.5v-7.5h-7.5v-7.4h7.5v-7.5h7.5v7.5h7.5V67.6z"/>
</svg>
