<svg xmlns="http://www.w3.org/2000/svg" viewBox="0 0 128 128">
<path d="M73.5,54.6c2.6,2.6,3.8,5.8,3.8,9.5c0,3.7-1.3,6.8-3.8,9.4c-2.7,2.6-5.8,3.8-9.5,3.8
	s-6.8-1.3-9.4-3.8c-2.6-2.6-3.8-5.7-3.8-9.4c0-3.7,1.3-6.9,3.8-9.5c2.6-2.6,5.7-3.8,9.4-3.8C67.7,50.8,70.9,52.1,73.5,54.6z M128,64
	c0,17.7-6.3,32.7-18.8,45.2C96.7,121.7,81.7,128,64,128s-32.8-6.3-45.2-18.8C6.2,96.7,0,81.7,0,64c0-17.7,6.2-32.8,18.8-45.2
	S46.3,0,64,0s32.7,6.2,45.2,18.8C121.7,31.2,128,46.3,128,64z M104,64.1c0-8.1-0.1-13.6-0.2-16.4c0-3.3-0.6-6.6-1.8-9.8
	c-2.1-5.6-6-9.5-11.7-11.7c-3.2-1.2-6.5-1.8-9.8-1.8c-5.7-0.2-11.2-0.2-16.5-0.2c-8.2,0-13.6,0.1-16.4,0.2c-3.4,0-6.6,0.6-9.8,1.8
	C32.1,28.4,28.2,32.3,26,38c-1.2,3.2-1.8,6.4-1.8,9.8C24.1,50.5,24,56,24,64.1c0,8.1,0.1,13.6,0.2,16.4c0,3.3,0.6,6.5,1.8,9.7
	c2.2,5.6,6.1,9.5,11.8,11.6c3.1,1.1,6.4,1.8,9.8,2h32.9c3.4-0.2,6.7-0.8,9.8-2c5.7-2.1,9.6-6,11.7-11.6c1.2-3.2,1.8-6.4,1.8-9.7
	C103.9,77.7,104,72.2,104,64.1z M96.5,48c0.2,2.8,0.2,8.2,0.2,16.2c0,7.9-0.1,13.3-0.2,16c0,2.2-0.4,4.7-1.3,7.5
	c-1.4,3.6-3.9,6.2-7.6,7.7c-2.1,0.8-4.6,1.2-7.5,1.5H47.8c-2.8-0.2-5.3-0.7-7.5-1.5c-3.7-1.4-6.2-3.9-7.7-7.7
	c-0.9-2.7-1.3-5.2-1.3-7.5c-0.2-2.7-0.2-8.1-0.2-16c0-8,0.1-13.4,0.2-16.2c0-2.3,0.4-4.7,1.3-7.3c1.5-3.7,4-6.2,7.7-7.6
	c2.6-0.9,5.1-1.4,7.5-1.4c2.8-0.2,8.2-0.2,16.1-0.2c8,0,13.4,0.1,16.2,0.2c2.4,0,4.9,0.5,7.5,1.4c3.6,1.4,6.1,3.9,7.6,7.6
	C96.1,43.2,96.5,45.6,96.5,48z M84.5,64.1c0-5.7-2-10.5-6-14.5c-3.9-4-8.8-6-14.5-6c-5.7,0-10.5,2-14.5,6c-4,4-6.1,8.8-6.1,14.5
	c0,5.6,2,10.5,6.1,14.5c4,4,8.9,6,14.5,6c5.8,0,10.6-2,14.5-6C82.5,74.6,84.5,69.8,84.5,64.1z M90.2,42.8c0-1.4-0.5-2.5-1.5-3.3
	c-0.9-0.9-2-1.4-3.3-1.4c-1.4,0-2.5,0.5-3.5,1.4c-1,0.8-1.5,1.9-1.5,3.3c0,1.3,0.5,2.4,1.5,3.3c0.9,0.9,2.1,1.4,3.5,1.4
	c1.3,0,2.4-0.5,3.3-1.4C89.8,45.2,90.2,44.1,90.2,42.8z"/>
</svg>
