<svg xmlns="http://www.w3.org/2000/svg" viewBox="0 0 128 128">
<path d="M109.2,18.8C96.7,6.2,81.7,0,64,0S31.2,6.2,18.8,18.8S0,46.3,0,64c0,17.7,6.2,32.7,18.8,45.2
	C31.2,121.7,46.3,128,64,128s32.7-6.3,45.2-18.8C121.7,96.7,128,81.7,128,64C128,46.3,121.7,31.2,109.2,18.8z M42,103.9H25.3V51H42
	V103.9z M40.8,40.8c-1.9,1.9-4.2,2.9-7,2.9c-2.7,0-5-1-6.9-2.9C25,39,24,36.6,24,34c0-2.7,1-5.1,2.9-7c1.9-1.9,4.2-2.9,6.9-2.9
	c2.7,0,5,1,7,2.9c1.9,1.9,2.9,4.2,2.9,7C43.7,36.6,42.7,39,40.8,40.8z M103.8,73.1v30.8H87.5V76.5c0.1-2-0.1-4.1-0.8-6.2
	c-1.3-4.1-3.9-6.2-7.7-6.2c-4.1,0-7,1.8-8.8,5.5c-0.9,1.9-1.3,3.9-1.3,6v28.3H52.2V51H69v7c1.4-4.1,4.6-6.8,9.5-8.2
	c2.4-0.6,4.7-0.8,7-0.8c8.5,0,14.2,4,16.9,12.1C103.8,65.1,104.2,69.1,103.8,73.1z"/>
</svg>
