<svg xmlns="http://www.w3.org/2000/svg" viewBox="0 0 128 128">
<path d="M109.2,18.8C96.7,6.2,81.7,0,64,0S31.2,6.2,18.8,18.8S0,46.3,0,64c0,17.7,6.2,32.7,18.8,45.2
	C31.2,121.7,46.3,128,64,128s32.7-6.3,45.2-18.8C121.7,96.7,128,81.7,128,64C128,46.3,121.7,31.2,109.2,18.8z M92.3,92.3
	C84.5,100.1,75,104,64,104c-3.9,0-7.7-0.5-11.3-1.6c1.9-3,3.2-5.8,4-8.5l2.8-11.2c0.7,1.4,2,2.7,3.8,3.8c2,1,4,1.4,6,1.4
	c6.4,0,11.6-2.7,15.6-8c4-5.1,6-11.6,6-19.5c0-6.1-2.3-11.4-6.9-15.8c-4.9-4.8-11.1-7.2-18.5-7.2c-8.8,0-15.9,2.8-21.4,8.4
	c-4.8,4.9-7.2,10.5-7.2,16.8c0,3.5,0.7,6.6,2,9.3c1.4,2.8,3.5,4.8,6.1,5.8c1.1,0.4,1.7,0.1,2-0.9l0.8-3.2c0.2-0.9,0-1.7-0.5-2.3
	c-1.8-2-2.6-4.7-2.6-7.9c0-5.2,1.8-9.7,5.3-13.3c3.7-3.8,8.5-5.7,14.4-5.7c5.2,0,9.4,1.5,12.4,4.4c2.9,2.7,4.3,6.4,4.3,10.9
	c0,5.9-1.2,10.8-3.5,14.9c-2.5,4.2-5.6,6.2-9.2,6.2c-2.1,0-3.9-0.8-5.2-2.2c-1.2-1.5-1.6-3.3-1.2-5.5c0.2-0.8,0.9-3.3,2.2-7.6
	c0.9-2.9,1.3-5.1,1.3-6.5c0-4-1.8-6-5.4-6c-2.1,0-3.9,1-5.4,2.9c-1.5,2-2.2,4.4-2.2,7.3c0,2.6,0.4,4.7,1.2,6.3l-5.2,21.9
	c-0.6,2.8-0.9,5.8-0.7,9.2c-7.1-3.1-12.8-8-17.2-14.5C26.2,79.4,24,72,24,64c0-11,3.9-20.4,11.7-28.2C43.5,27.9,53,24,64,24
	s20.5,3.9,28.3,11.8C100.1,43.5,104,53,104,64S100.1,84.4,92.3,92.3z"/>
</svg>
