<svg xmlns="http://www.w3.org/2000/svg" viewBox="0 0 128 128">
<path d="M109.2,18.8C96.7,6.2,81.7,0,64,0S31.2,6.2,18.8,18.8S0,46.3,0,64c0,17.7,6.2,32.7,18.8,45.2
	C31.2,121.7,46.3,128,64,128s32.7-6.3,45.2-18.8C121.7,96.7,128,81.7,128,64C128,46.3,121.7,31.2,109.2,18.8z M96,47.5
	c0.5,12.5-3.3,23.5-11.5,33.2c-9,10.5-20.8,15.7-35.3,15.8c-8.9,0-17.3-2.5-25.2-7.4c9.2,1,17.4-1.3,24.5-6.8
	c-3.5-0.1-6.7-1.1-9.6-3.2c-2.8-2.1-4.7-4.8-5.8-8.2c2.5,0.4,5,0.3,7.4-0.3c-3.9-0.8-7.1-2.8-9.6-5.8c-2.5-3-3.7-6.5-3.6-10.5
	c2.2,1.2,4.7,1.9,7.5,2.1c-3.6-2.4-6-5.8-7-10c-0.9-4.3-0.3-8.3,1.8-12c4.1,5.2,9.2,9.2,15.1,12.2c5.9,2.9,12.1,4.6,18.8,4.9
	c-0.6-2.8-0.5-5.6,0.2-8.3c0.9-2.9,2.4-5.3,4.5-7.2c3.3-3.2,7.2-4.7,11.8-4.5c4.6,0.2,8.4,1.9,11.5,5.1c3.8-0.8,7.2-2.1,10.3-4
	c-1.3,4-3.7,7-7.2,9.2c3.2-0.3,6.3-1.2,9.5-2.5C101.7,42.5,99,45.2,96,47.5z"/>
</svg>
