<svg xmlns="http://www.w3.org/2000/svg" viewBox="0 0 128 128">
<path d="M109.2,18.8C96.7,6.2,81.7,0,64,0S31.2,6.2,18.8,18.8S0,46.3,0,64c0,17.7,6.2,32.7,18.8,45.2
	C31.2,121.7,46.3,128,64,128s32.7-6.3,45.2-18.8C121.7,96.7,128,81.7,128,64C128,46.3,121.7,31.2,109.2,18.8z M103.6,45.8
	c-2,10.8-7.8,21.9-17.3,33.2c-6.9,8.1-13.5,14.2-19.7,18.1c-3.4,2.2-6.8,2.3-10.2,0.3c-2.8-1.7-5-4.1-6.6-7.4
	c-0.8-1.8-3.1-8.9-7-21.4C39.2,57,37,50.6,36.2,49.6c-1-1.1-2.7-0.9-5.2,0.4l-3.7,2.2L24,48l8-8.4c6.3-5.8,11.6-9,15.9-9.8
	c4.6-1,8,2,10,9c1.1,3.9,2.4,10,3.7,18.2c1.4,5.8,2.5,9.8,3.2,12c1.1,2.8,2.1,4.2,3.2,4.2c2.2,0,5.9-4.8,11.2-14.4
	c2.4-4.6,2.6-8.2,0.5-10.8c-2.1-2.8-5.4-2.9-9.9-0.2c0.9-5.2,3.4-9.5,7.5-13c3.7-3.2,7.8-5.1,12.5-5.5c4.7-0.5,8.3,0.5,10.9,3.2
	C103.7,35.5,104.7,40,103.6,45.8z"/>
</svg>
