<svg xmlns="http://www.w3.org/2000/svg" viewBox="0 0 128 128">
<path d="M109.2,18.8C96.7,6.2,81.7,0,64,0S31.2,6.2,18.8,18.8S0,46.3,0,64c0,17.7,6.2,32.7,18.8,45.2
	C31.2,121.7,46.3,128,64,128s32.7-6.3,45.2-18.8C121.7,96.7,128,81.7,128,64C128,46.3,121.7,31.2,109.2,18.8z M104,72.6
	c0,9.3-1.4,15.1-4.1,17.4c-2.4,1.9-8.6,2.9-18.7,2.9H46.7c-10.1,0-16.4-1-18.8-2.9c-2.6-2.2-4-8-4-17.4V55.2c0-9.2,1.3-15,4-17.2
	c2.4-1.9,8.6-2.9,18.8-2.9h34.5c10.2,0,16.5,1,18.8,2.9c2.6,2.3,4,8.1,4,17.5V72.6z M55.7,48.3l22.8,14.9L55.7,78.1V48.3z"/>
</svg>
