<svg version="1.1" class="icon-close" xmlns="http://www.w3.org/2000/svg" viewBox="0 0 100 80">
<path d="M54.2,55.1c-1.1,4.9-0.5,9.6,1.7,14.2C59.4,76.4,65.3,80,73.5,80c7.7,0,13.9-2.9,18.8-8.8
	c4.8-5.7,7.3-12.3,7.7-19.8c0.3-7.3-0.9-14.3-3.7-21c-2.9-6.9-7.1-12.9-12.6-18C78.4,7.6,72.7,3.6,66.5,0.2C66,0.2,65.6,0.1,65.2,0
	c-1,0-1.6,0.3-1.9,1.1c-1,2.7-0.3,4.8,2.2,6.3c6.9,4.3,12.5,9.9,16.6,16.7c3.1,5.2,4.8,10.9,5.1,16.9c0.1,2.2-0.6,4-2.2,5.3
	c-0.3,0.1-0.7,0.1-1,0c-1.9-0.4-3.8-0.9-5.8-1.3c-7.3-1.6-14-0.3-20,3.8C56.1,50.5,54.7,52.5,54.2,55.1 M30.4,46.5
	c-1.9-0.4-3.8-0.9-5.8-1.3c-7.3-1.6-14-0.3-20,3.8c-2.1,1.5-3.5,3.5-4.1,6C-0.6,60,0,64.7,2.3,69.3C5.8,76.4,11.7,80,19.9,80
	c7.7,0,13.9-2.9,18.8-8.8c4.8-5.7,7.3-12.3,7.7-19.8c0.3-7.3-0.9-14.3-3.7-21c-2.9-6.9-7.1-12.9-12.6-18C24.8,7.6,19.1,3.6,12.9,0.2
	C12.4,0.2,12,0.1,11.5,0c-1,0-1.6,0.3-1.9,1.1c-1,2.7-0.3,4.8,2.2,6.3c6.9,4.3,12.5,9.9,16.6,16.7c3.1,5.2,4.8,10.9,5.1,16.9
	c0.1,2.2-0.6,4-2.2,5.3C31.1,46.5,30.7,46.5,30.4,46.5z"/>
</svg>
