<svg version="1.1" class="icon-open" xmlns="http://www.w3.org/2000/svg" viewBox="0 0 100 80">
<path d="M45.8,24.9c1.1-4.9,0.5-9.6-1.7-14.2C40.6,3.6,34.7,0,26.5,0C18.8,0,12.6,2.9,7.7,8.8
	c-4.8,5.7-7.3,12.3-7.7,19.8c-0.3,7.3,0.9,14.3,3.7,21c2.9,6.9,7.1,12.9,12.6,18c5.2,4.7,10.9,8.8,17.1,12.1
	c0.4,0.1,0.9,0.2,1.3,0.2c1,0,1.6-0.3,1.9-1.1c1-2.7,0.3-4.8-2.2-6.3c-6.9-4.3-12.5-9.9-16.6-16.7c-3.1-5.2-4.8-10.9-5.1-16.9
	c-0.1-2.2,0.6-4,2.2-5.3c0.3-0.1,0.7-0.1,1,0c1.9,0.4,3.8,0.9,5.8,1.3c7.3,1.6,14,0.3,20-3.8C43.9,29.5,45.3,27.5,45.8,24.9
	 M69.6,33.5c1.9,0.4,3.8,0.9,5.8,1.3c7.3,1.6,14,0.3,20-3.8c2.1-1.5,3.5-3.5,4.1-6c1.1-4.9,0.5-9.6-1.7-14.2C94.2,3.6,88.3,0,80.1,0
	c-7.7,0-13.9,2.9-18.8,8.8c-4.8,5.7-7.3,12.3-7.7,19.8c-0.3,7.3,0.9,14.3,3.7,21c2.9,6.9,7.1,12.9,12.6,18
	c5.2,4.7,10.9,8.8,17.1,12.1c0.4,0.1,0.9,0.2,1.3,0.2c1,0,1.6-0.3,1.9-1.1c1-2.7,0.3-4.8-2.2-6.3c-6.9-4.3-12.5-9.9-16.6-16.7
	c-3.1-5.2-4.8-10.9-5.1-16.9c-0.1-2.2,0.6-4,2.2-5.3C68.9,33.5,69.3,33.5,69.6,33.5z"/>
</svg>
