<svg version="1.1" class="icon" xmlns="http://www.w3.org/2000/svg" viewBox="0 0 100 100">
<path d="M62.7,16.2H15l-2.6,12.6h28.8L24.3,44.6l-2,10.4h7.2c3.8,0,6.6,0.6,8.4,1.8c1.8,1.2,2.8,3,2.8,5.5c0,3.1-1.3,5.5-3.8,7.2
	C34.3,71.1,30.7,72,26,72c-3.6,0-7-0.5-10.2-1.6c-3.2-1.1-5.9-2.6-8.2-4.6L0.1,77.3c2.9,2.5,6.5,4.5,10.9,5.8c4.3,1.4,9,2,14,2
	c6.1,0,11.5-1,16.3-3.1c4.8-2.1,8.5-4.9,11.2-8.5c2.7-3.6,4-7.7,4-12.3c0-4.4-1.3-8.1-3.9-11c-2.6-3-6.3-5-11-6.1l19.1-17.7
	L62.7,16.2z M61.3,85.1c-1.8,0-3.3-0.6-4.5-1.7c-1.2-1.2-1.8-2.6-1.8-4.4c0-2.1,0.7-3.8,2.1-5.1c1.4-1.3,3.1-2,5.1-2
	c1.8,0,3.3,0.6,4.5,1.7c1.2,1.1,1.8,2.6,1.8,4.5c0,2.1-0.7,3.8-2.1,5.1C64.9,84.5,63.2,85.1,61.3,85.1L61.3,85.1z M100,16.2L86,85.1
	H70.3l11.4-56.3h-6l2.5-12.6H100z"/>
</svg>
