<svg version="1.1" class="logo" xmlns="http://www.w3.org/2000/svg" viewBox="0 0 250 100">
<path d="M195.3,0h-69.1l-3.8,18.3h41.7l-24.5,22.9l-3,15h10.4c5.5,0,9.5,0.9,12.2,2.6c2.7,1.7,4,4.4,4,7.9c0,4.5-1.8,8-5.5,10.5
	c-3.7,2.5-8.9,3.7-15.7,3.7c-5.2,0-10.1-0.8-14.7-2.4c-4.7-1.6-8.6-3.8-11.9-6.6l-11,16.7c4.2,3.7,9.5,6.5,15.8,8.4
	c6.3,2,13.1,2.9,20.3,2.9c8.8,0,16.7-1.5,23.7-4.5c7-3,12.4-7.1,16.3-12.4c3.9-5.2,5.9-11.2,5.9-17.8c0-6.4-1.9-11.7-5.6-16
	c-3.8-4.3-9.1-7.3-15.9-8.8l27.6-25.7L195.3,0z M193.3,100c-2.7,0-4.9-0.8-6.6-2.5c-1.7-1.7-2.6-3.8-2.6-6.4c0-3,1-5.5,3-7.5
	c2-1.9,4.5-2.9,7.4-2.9c2.7,0,4.8,0.8,6.5,2.5c1.7,1.7,2.5,3.8,2.5,6.5c0,3-1,5.4-3,7.4C198.5,99,196.1,100,193.3,100L193.3,100z
	 M249.5,0l-20.3,100h-22.8L223,18.3h-8.7L217.9,0H249.5z M69.1,63.9h5.2V50.7c0-0.5,0-1.2,0-1.9c0-0.7-0.1-1.5-0.3-2.2
	c-0.2-0.8-0.5-1.5-0.9-2.3c-0.4-0.8-1-1.4-1.7-2c-0.7-0.6-1.7-1-2.8-1.4c-1.1-0.4-2.5-0.6-4.1-0.6c-1.8,0-3.6,0.3-5.3,0.9
	c-1.7,0.6-3.2,1.5-4.5,2.8l3,3c0.8-0.7,1.7-1.3,2.7-1.8c1.1-0.4,2.2-0.6,3.4-0.6c1.5,0,2.8,0.4,3.8,1.1c1,0.7,1.5,1.8,1.5,3.2v0.6
	h-1.4c-1,0-2,0-3.1,0.1c-1.1,0-2.2,0.2-3.2,0.3c-1.1,0.2-2.1,0.4-3.1,0.8c-1,0.4-1.9,0.8-2.6,1.4c-0.8,0.6-1.4,1.3-1.8,2.2
	c-0.4,0.9-0.7,1.9-0.7,3.2c0,1.2,0.2,2.2,0.7,3c0.5,0.9,1.1,1.6,1.9,2.2c0.8,0.6,1.7,1,2.7,1.3c1,0.3,2,0.4,3.1,0.4
	c1.5,0,3-0.3,4.2-0.9c1.3-0.6,2.3-1.5,3.2-2.9h0.1V63.9z M68.7,54.9c0,1.6-0.5,2.9-1.4,3.9c-0.9,0.9-2.4,1.4-4.4,1.4
	c-0.5,0-1-0.1-1.4-0.2c-0.5-0.1-0.9-0.3-1.3-0.6c-0.4-0.3-0.7-0.6-0.9-0.9c-0.2-0.4-0.4-0.8-0.4-1.4c0-0.8,0.3-1.5,0.9-1.9
	c0.6-0.5,1.4-0.8,2.2-1.1c0.9-0.2,1.8-0.4,2.8-0.5c1-0.1,1.9-0.1,2.7-0.1h1.2V54.9z M31.6,34.5c-1.7-2-3.5-3.3-5.5-4.2
	c-2-0.8-4.1-1.2-6.4-1.2c-2.6,0-5,0.4-7.2,1.3c-2.2,0.8-4.1,2.1-5.7,3.6c-1.6,1.6-2.8,3.5-3.7,5.7c-0.9,2.2-1.3,4.7-1.3,7.4
	c0,2.7,0.4,5.1,1.3,7.2c0.9,2.2,2.1,4,3.7,5.6c1.6,1.6,3.5,2.8,5.7,3.6c2.2,0.8,4.6,1.3,7.2,1.3c2.5,0,4.9-0.5,7.1-1.4
	c2.2-1,4.1-2.5,5.6-4.6l-5-3.6c-1.1,1.4-2.3,2.5-3.6,3.1c-1.3,0.7-2.6,1-4,1c-1.8,0-3.4-0.3-4.8-1c-1.4-0.6-2.7-1.5-3.7-2.6
	c-1-1.1-1.8-2.4-2.4-4c-0.6-1.5-0.8-3.2-0.8-5C8,45,8.2,43.4,8.8,42c0.6-1.5,1.4-2.8,2.4-3.9c1-1.1,2.3-2,3.7-2.6
	c1.4-0.6,3-0.9,4.8-0.9c1.2,0,2.4,0.2,3.5,0.7c1.2,0.4,2.4,1.3,3.6,2.7L31.6,34.5z M35.9,63.9h5.8V51.6c0-0.3,0.1-0.8,0.2-1.4
	c0.1-0.6,0.4-1.3,0.9-1.9c0.4-0.6,1.1-1.2,1.9-1.7c0.8-0.5,1.9-0.7,3.2-0.7c0.4,0,0.9,0,1.4,0.1c0.5,0.1,0.9,0.2,1.4,0.3v-5.6
	c-0.4-0.1-0.7-0.2-1-0.2c-0.3-0.1-0.7-0.1-1-0.1c-1.5,0-2.9,0.4-4.1,1.1c-1.2,0.7-2.1,1.8-2.7,3.1h-0.1v-3.6h-5.8V63.9z M82.5,63.9
	h5.8V45.8h5.3v-4.9h-5.3v-4.2c0-0.6,0-1.2,0.1-1.8c0.1-0.6,0.3-1.1,0.5-1.5c0.3-0.4,0.6-0.8,1.1-1c0.5-0.3,1.1-0.4,1.9-0.4
	c0.4,0,0.8,0,1.2,0.1c0.4,0.1,0.8,0.1,1.2,0.2l0.4-4.9c-1.1-0.2-2.3-0.3-3.7-0.3c-1.8,0-3.3,0.2-4.4,0.7c-1.1,0.5-2,1.2-2.6,2.1
	c-0.6,0.9-1.1,2-1.3,3.3c-0.2,1.3-0.3,2.7-0.3,4.3v3.3h-4.8v4.9h4.8V63.9z M99.5,45.8v10.6c0,1.3,0.1,2.5,0.3,3.6
	c0.2,1,0.6,1.9,1.2,2.6c0.6,0.7,1.3,1.2,2.3,1.5c1,0.3,2.2,0.5,3.8,0.5c0.7,0,1.5-0.1,2.3-0.2c0.9-0.1,1.6-0.3,2.2-0.6v-4.8
	c-0.4,0.3-0.8,0.4-1.4,0.6c-0.6,0.1-1.2,0.2-1.7,0.2c-1.3,0-2.1-0.3-2.6-1c-0.4-0.7-0.6-1.6-0.6-2.7V45.8h6.4v-4.9h-6.4v-6.7h-5.8
	v6.7h-4.8v4.9H99.5z"/>
</svg>
