<svg version="1.1" class="logo" xmlns="http://www.w3.org/2000/svg" viewBox="0 0 300 100">
	<polygon points="50,82.9 19.1,100 25,63.8 0,38.2 34.5,32.9 50,0 65.5,32.9 100,38.2 75,63.8 80.9,100 	"/>
	<path d="M123.1,43.4c-3.1-1.7-5.5-4-7.3-7c-1.8-3-2.6-6.4-2.6-10.1c0-3.7,0.9-7.1,2.6-10.1c1.8-3,4.2-5.3,7.3-7
		c3.1-1.7,6.6-2.6,10.4-2.6c3,0,5.8,0.5,8.2,1.5c2.5,1,4.6,2.5,6.4,4.5l-3.6,3.5c-2.9-3-6.5-4.6-10.8-4.6c-2.9,0-5.4,0.6-7.8,1.9
		c-2.3,1.3-4.1,3.1-5.4,5.3c-1.3,2.3-2,4.8-2,7.6c0,2.8,0.7,5.3,2,7.6c1.3,2.3,3.1,4,5.4,5.3c2.3,1.3,4.9,1.9,7.8,1.9
		c4.3,0,7.9-1.5,10.8-4.6l3.6,3.5c-1.8,2-3.9,3.5-6.4,4.5c-2.5,1-5.3,1.5-8.3,1.5C129.6,46,126.2,45.1,123.1,43.4z M164.4,17.4
		c1.8-0.9,4-1.3,6.5-1.3v5.1c-0.3,0-0.7-0.1-1.2-0.1c-2.9,0-5.1,0.9-6.7,2.6c-1.6,1.7-2.4,4.1-2.4,7.3v14.5h-5.3V16.4h5.1v4.9
		C161.2,19.6,162.6,18.3,164.4,17.4z M197.2,19.1c2.1,2,3.2,4.9,3.2,8.9v17.6h-5v-3.8c-0.9,1.4-2.1,2.4-3.8,3.1
		c-1.6,0.7-3.6,1.1-5.8,1.1c-3.3,0-5.9-0.8-7.8-2.4c-2-1.6-2.9-3.6-2.9-6.2c0-2.6,0.9-4.6,2.8-6.2c1.9-1.6,4.8-2.3,8.9-2.3h8.4v-1
		c0-2.3-0.7-4-2-5.2c-1.3-1.2-3.3-1.8-5.8-1.8c-1.7,0-3.4,0.3-5.1,0.9c-1.6,0.6-3,1.3-4.2,2.3l-2.2-4c1.5-1.2,3.3-2.1,5.4-2.8
		c2.1-0.6,4.3-1,6.7-1C192,16.1,195.1,17.1,197.2,19.1z M192,40.5c1.5-0.9,2.5-2.2,3.2-3.8v-4.1H187c-4.5,0-6.7,1.5-6.7,4.5
		c0,1.5,0.6,2.6,1.7,3.5c1.1,0.8,2.7,1.3,4.7,1.3C188.8,41.8,190.5,41.3,192,40.5z M216.2,13.9v2.5h8.5v4.3h-8.4v24.8H211V20.7h-4.9
		v-4.3h4.9v-2.6c0-2.9,0.8-5.2,2.5-6.9c1.7-1.7,4.1-2.5,7.1-2.5c1.2,0,2.3,0.1,3.3,0.4c1,0.3,1.9,0.7,2.6,1.3l-1.6,4
		c-1.2-0.9-2.6-1.4-4.1-1.4C217.8,8.8,216.2,10.5,216.2,13.9z M246,43.8c-0.8,0.7-1.7,1.2-2.9,1.5c-1.1,0.3-2.3,0.5-3.5,0.5
		c-2.9,0-5.2-0.8-6.8-2.4c-1.6-1.6-2.4-3.8-2.4-6.8v-16h-4.9v-4.3h4.9V10h5.3v6.4h8.4v4.3h-8.4v15.8c0,1.6,0.4,2.8,1.2,3.6
		c0.8,0.8,1.9,1.3,3.4,1.3c1.6,0,3-0.5,4.1-1.4L246,43.8z M152,95.5l-0.1-28L138,90.8h-2.5l-13.9-23.2v27.9h-5.3V57h4.5l16.1,27.1
		L152.7,57h4.5l0.1,38.5H152z M187.9,69.1c2.1,2,3.2,4.9,3.2,8.9v17.6h-5v-3.8c-0.9,1.4-2.1,2.4-3.8,3.1c-1.6,0.7-3.6,1.1-5.8,1.1
		c-3.3,0-5.9-0.8-7.8-2.4c-2-1.6-2.9-3.6-2.9-6.2c0-2.6,0.9-4.6,2.8-6.2c1.9-1.6,4.8-2.3,8.9-2.3h8.4v-1c0-2.3-0.7-4-2-5.2
		c-1.3-1.2-3.3-1.8-5.8-1.8c-1.7,0-3.4,0.3-5.1,0.9c-1.6,0.6-3,1.3-4.2,2.3l-2.2-4c1.5-1.2,3.3-2.1,5.4-2.8s4.3-1,6.7-1
		C182.7,66.1,185.7,67.1,187.9,69.1z M182.6,90.4c1.5-0.9,2.5-2.2,3.2-3.8v-4.1h-8.1c-4.5,0-6.7,1.5-6.7,4.5c0,1.5,0.6,2.6,1.7,3.5
		c1.1,0.8,2.7,1.3,4.7,1.3C179.4,91.8,181.2,91.3,182.6,90.4z M202.4,94.9c-2.2-0.6-3.9-1.5-5.2-2.4l2.2-4.2c1.3,0.9,2.8,1.6,4.7,2.2
		c1.8,0.5,3.7,0.8,5.6,0.8c4.6,0,6.9-1.3,6.9-4c0-0.9-0.3-1.6-0.9-2.1c-0.6-0.5-1.4-0.9-2.3-1.1c-0.9-0.2-2.3-0.5-4-0.8
		c-2.3-0.4-4.3-0.8-5.7-1.3c-1.5-0.5-2.8-1.3-3.8-2.4c-1.1-1.1-1.6-2.7-1.6-4.8c0-2.6,1.1-4.8,3.3-6.4c2.2-1.6,5.1-2.4,8.9-2.4
		c1.9,0,3.9,0.2,5.8,0.7c1.9,0.5,3.5,1.1,4.8,1.9l-2.3,4.2c-2.4-1.5-5.2-2.3-8.4-2.3c-2.2,0-3.9,0.4-5.1,1.1
		c-1.2,0.7-1.8,1.7-1.8,2.9c0,1,0.3,1.7,1,2.3s1.5,1,2.4,1.2c1,0.3,2.3,0.5,4.1,0.9c2.3,0.4,4.2,0.8,5.7,1.3c1.4,0.5,2.7,1.2,3.7,2.3
		c1,1.1,1.5,2.6,1.5,4.6c0,2.6-1.1,4.7-3.4,6.3c-2.3,1.6-5.3,2.3-9.2,2.3C206.9,95.9,204.6,95.5,202.4,94.9z M244.8,93.8
		c-0.8,0.7-1.7,1.2-2.9,1.5c-1.1,0.3-2.3,0.5-3.5,0.5c-2.9,0-5.2-0.8-6.8-2.4c-1.6-1.6-2.4-3.8-2.4-6.8v-16h-4.9v-4.3h4.9V60h5.3v6.4
		h8.4v4.3h-8.4v15.8c0,1.6,0.4,2.8,1.2,3.6c0.8,0.8,1.9,1.3,3.4,1.3c1.6,0,3-0.5,4.1-1.4L244.8,93.8z M276.4,82.7h-23.6
		c0.3,2.6,1.5,4.6,3.4,6.2c1.9,1.6,4.3,2.3,7.2,2.3c3.5,0,6.3-1.2,8.4-3.5l2.9,3.4c-1.3,1.5-3,2.7-4.9,3.5c-2,0.8-4.2,1.2-6.6,1.2
		c-3.1,0-5.8-0.6-8.2-1.9s-4.2-3-5.5-5.3c-1.3-2.3-2-4.8-2-7.7c0-2.8,0.6-5.4,1.9-7.6c1.3-2.3,3-4,5.2-5.3s4.7-1.9,7.5-1.9
		s5.3,0.6,7.5,1.9c2.2,1.3,3.9,3,5.1,5.3c1.2,2.3,1.8,4.9,1.8,7.8C276.6,81.5,276.5,82,276.4,82.7z M255.8,72.9c-1.7,1.5-2.7,3.6-3,6
		h18.7c-0.3-2.5-1.3-4.5-3-6c-1.7-1.6-3.8-2.3-6.4-2.3S257.5,71.3,255.8,72.9z M293,67.4c1.8-0.9,4-1.3,6.5-1.3v5.1
		c-0.3,0-0.7-0.1-1.2-0.1c-2.9,0-5.1,0.9-6.7,2.6c-1.6,1.7-2.4,4.1-2.4,7.3v14.5h-5.3V66.4h5.1v4.9C289.8,69.6,291.2,68.3,293,67.4z"
		/>
</svg>
